<?xml version="1.0" encoding="UTF-8"?>
<svg xmlns="http://www.w3.org/2000/svg" viewBox="0 0 280.23126 43">
  <g isolation="isolate">
    <g id="Layer_2" data-name="Layer 2">
      <g id="notepage_top" data-name="notepage top">
        <g id="paper">
          <path d="m266.57007,14.38422l-1.00085,4.89954-.0069.03369.02637.02087c.39349.29504,1.16211,1.93219,1.16211,3.21252,0,1.26849-.56543,2.45551-1.5498,3.25677-.98627.80225-2.27728,1.10944-3.5498.84473-1.58197-.33008-2.86719-1.61469-3.1983-3.19769-.26556-1.27014.04401-2.56354.84479-3.54889.80084-.98584,1.9892-1.55121,3.25781-1.55121.06354,0,.18164,0,.58789-4.11774l-.52148-1.20306-.01367-.03284h-24.57812l-.28418,6.02301-.00104.03033.02643.01709c1.43262.96869,2.11908,2.70361,1.74609,4.42041-.33789,1.56049-1.61719,2.82959-3.18073,3.15869-1.2724.26746-2.5683-.03961-3.55457-.84039-.98743-.80121-1.55383-1.9892-1.55383-3.25922,0-1.53333.83502-2.94342,2.17975-3.68073l.02734-.0166-.1875-5.7998-.00195-.0528h-26.89551l1.02051,5.3985.00879.05475.05469-.01172c.55762-.11719,1.13483-.11719,1.71393-.00403,1.58197.31165,2.8808,1.57281,3.23138,3.13971.3125,1.39209-.0498,2.77979-.99512,3.80963-.94427,1.02826-2.28607,1.50677-3.68359,1.3183-1.76947-.2417-3.22461-1.63379-3.53711-3.38574-.12988-.73926-.07416-1.46289.16699-2.15137l.00293-.01172-.60162-5.30469-.00085-.01422-2.02936-2.81488-.01569-.02252h-17.04681l-.61328,6.45465-.00201.02637.01862.01862c1.07422,1.01459,1.5293,2.49847,1.21783,3.96918-.33405,1.57318-1.61536,2.85162-3.19141,3.18164-1.2774.27008-2.56641-.04242-3.5528-.8432-.98535-.80182-1.55084-1.98883-1.55084-3.25732,0-1.2251.53424-2.38678,1.46594-3.18561l.01746-.01562.14563-6.29297.00189-.05573h-23.35449l.18457,2.04895.00293.02875.02539.01373c.35248.19092.93457,1.95306,1.35938,3.24066.29205.8833.5459,1.6474.69635,1.87164.57416.8501.81439,1.88721.67865,2.92041-.24707,1.86908-1.78906,3.37939-3.66595,3.5932-1.22369.13818-2.3819-.23041-3.28619-1.03662-.89062-.79541-1.40131-1.93701-1.40131-3.1308,0-1.32922.63959-2.59283,1.71088-3.3819.19733-.14502.02148-.92041-.2793-2.17383-.2207-.91699-.47272-1.95557-.34961-2.19775l.00879-.01801-.45605-1.73779-.01074-.04065h-19.52881l-1.2168,6.40192-.00635.0293.0235.02051c1.10345,1.01031,1.58051,2.50342,1.27148,3.99408-.3277,1.58704-1.61334,2.87463-3.19879,3.20563-1.27002.26556-2.56494-.04248-3.55084-.8457-.98425-.80078-1.5498-1.9873-1.5498-3.2558,0-1.56653.86334-2.99219,2.25153-3.7193l.0293-.0166-.19379-5.76123-.00153-.0528h-20.5332l-1.53369,6.53235-.00641.0293.02014.021c1.02185,1.021,1.44086,2.4892,1.1225,3.92767-.34283,1.54791-1.61774,2.80963-3.17334,3.13873-1.27979.26794-2.56976-.03815-3.55566-.83795-.9892-.80176-1.55609-1.9903-1.55609-3.26117,0-1.47418.789-2.8584,2.05896-3.61188l.01575-.00922,2.26996-5.85498.0293-.07385h-23.91156l-.5777,6.41412-.0014.02643.01849.01794c1.10107,1.0108,1.57471,2.50305,1.26556,3.99036-.3291,1.58435-1.61469,2.87158-3.19867,3.20258-1.27002.26471-2.56354-.04248-3.54932-.84473-.98438-.80127-1.54932-1.98828-1.54932-3.25677,0-1.24908.54932-2.42389,1.50732-3.22321l.02338-.01947-.97986-6.26135-.00592-.0459h-18.52979l-2.36963,6.19189-.01556.0376.03119.0249c1.19531.94293,1.77637,2.41364,1.5528,3.93274-.27063,1.83099-1.80469,3.31537-3.64752,3.5293-1.21088.1391-2.38666-.22418-3.29199-1.03229-.89398-.7959-1.40668-1.93842-1.40668-3.13422,0-1.12018.43646-2.17493,1.22986-2.96729l.02014-.02014-1.2373-6.51849-.00793-.04401h-21.26697l.7915,6.13141.0014.02289.01855.01373c1.35254.99457,1.96924,2.64648,1.61182,4.3125-.35211,1.64209-1.59906,2.86182-3.25439,3.18311-1.25146.24457-2.53857-.0752-3.50879-.87549-.97223-.80035-1.52777-1.98041-1.52777-3.23822,0-.96442.31635-1.87018.91748-2.62109l.02002-.02454-2.91412-6.87109-.0141-.0332H.70001v29.99908h279.53125V13.00092h-12.84277l-.81842,1.3833Z" fill="#4f4f4f" opacity=".5"/>
          <path d="m265.87012,13.68427l-1.00092,4.89948-.0069.03369.02637.02094c.39349.29498,1.16211,1.93219,1.16211,3.21246,0,1.26849-.56537,2.45551-1.5498,3.25684-.98627.80219-2.27728,1.10938-3.5498.84467-1.58197-.33008-2.86719-1.61469-3.1983-3.19769-.26556-1.27008.04401-2.56348.84485-3.54889.80078-.98584,1.9892-1.55121,3.25775-1.55121.06354,0,.18164,0,.58795-4.11768l-.52155-1.20312-.01367-.03278h-24.57812l-.28418,6.02295-.00098.03033.02637.01709c1.43262.96869,2.11908,2.70361,1.74609,4.42041-.33789,1.56049-1.61719,2.82959-3.18066,3.15869-1.2724.26752-2.5683-.03961-3.55463-.84039-.98743-.80121-1.55377-1.9892-1.55377-3.25922,0-1.53326.83496-2.94342,2.17969-3.68066l.0274-.0166-.1875-5.7998-.00201-.0528h-26.89551l1.02051,5.3985.00879.05469.05469-.01172c.55762-.11719,1.13483-.11719,1.71393-.00397,1.58197.31158,2.8808,1.57275,3.23138,3.13965.3125,1.39215-.0498,2.77985-.99512,3.80963-.94427,1.02832-2.28607,1.50677-3.68359,1.3183-1.76947-.2417-3.22461-1.63379-3.53711-3.38568-.12988-.73932-.07416-1.46295.16705-2.15143l.00287-.01172-.60162-5.30469-.00085-.01416-2.0293-2.81494-.01575-.02246h-17.04675l-.61334,6.45459-.00195.02637.01855.01862c1.07422,1.01459,1.5293,2.49847,1.21783,3.96918-.33398,1.57324-1.6153,2.85162-3.19141,3.18164-1.2774.27008-2.56641-.04242-3.5528-.8432-.98529-.80182-1.55084-1.98883-1.55084-3.25732,0-1.2251.53424-2.38678,1.46594-3.18561l.01752-.01556.14557-6.29303.00189-.05566h-23.35449l.18463,2.04889.00287.02881.02539.01367c.35254.19092.93463,1.95312,1.35944,3.24072.29199.8833.5459,1.6474.69629,1.87158.57422.8501.81439,1.88721.67871,2.92041-.24713,1.86908-1.78912,3.37939-3.66602,3.5932-1.22369.13818-2.3819-.23041-3.28619-1.03662-.89062-.79541-1.40131-1.93701-1.40131-3.1308,0-1.32916.63959-2.59277,1.71088-3.3819.19733-.14502.02148-.92041-.2793-2.17377-.2207-.91705-.47272-1.95563-.34961-2.19781l.00885-.01801-.45612-1.73779-.01068-.04059h-19.52881l-1.2168,6.40186-.00641.0293.0235.02051c1.10352,1.01031,1.58051,2.50342,1.27148,3.99414-.3277,1.58698-1.61328,2.87457-3.19879,3.20557-1.27002.26562-2.56488-.04248-3.55078-.8457-.98431-.80078-1.5498-1.9873-1.5498-3.2558,0-1.56647.86328-2.99219,2.25146-3.7193l.0293-.0166-.19379-5.76117-.00153-.0528h-20.53314l-1.53375,6.53229-.00635.0293.02008.021c1.02191,1.021,1.44092,2.4892,1.1225,3.92767-.34283,1.54791-1.61774,2.80963-3.17328,3.13873-1.27985.26801-2.56982-.03809-3.55573-.83789-.9892-.80182-1.55609-1.9903-1.55609-3.26123,0-1.47418.789-2.8584,2.05896-3.61188l.01575-.00922,2.26996-5.85498.0293-.07379h-23.91156l-.5777,6.41406-.0014.02643.01849.01801c1.10107,1.0108,1.57471,2.50299,1.26556,3.9903-.32904,1.58441-1.61469,2.87158-3.19867,3.20258-1.27002.26471-2.56348-.04248-3.54932-.84467-.98438-.80133-1.54926-1.98834-1.54926-3.25684,0-1.24908.54926-2.42389,1.50726-3.22321l.02344-.01947-.97992-6.26129-.00592-.0459h-18.52979l-2.36963,6.19189-.01556.0376.03119.0249c1.19531.94287,1.77643,2.41357,1.5528,3.93268-.27057,1.83099-1.80469,3.31543-3.64752,3.5293-1.21088.1391-2.38666-.22418-3.29199-1.03229-.89398-.7959-1.40668-1.93842-1.40668-3.13422,0-1.12018.43652-2.17487,1.22992-2.96729l.02008-.02008-1.2373-6.51855-.00787-.04395h-21.26703l.7915,6.13135.0014.02295.01862.01367c1.35248.99463,1.96918,2.64648,1.61176,4.3125-.35205,1.64209-1.59906,2.86182-3.25439,3.18311-1.25146.24463-2.53857-.0752-3.50879-.87549-.97217-.80029-1.52777-1.98041-1.52777-3.23822,0-.96442.31641-1.87018.91748-2.62109l.02002-.02448-2.91412-6.87109-.0141-.0332H0v30.69904h279.53131V12.30096h-12.84283l-.81836,1.3833Z" fill="#f4f4f4"/>
        </g>
        <g id="tape_top" data-name="tape top">
          <path d="m107.4403,19.24685l1.267-2.28-.9-1.81.997-2.039-.926-1.858.986-1.525-.922-1.851.98-1.267-1.136-2.283,66.082,1.238-1.448,2.345,1.09,1.3-1.196,2.191,1.114,1.599-1.116,1.658,1.02,1.544-1.07,1.937,1.241,2.339-66.063-1.23799Z" fill="#d3d3d3" isolation="isolate" opacity=".3"/>
          <path d="m173.9163,16.18585l-1.003-1.519,1.12-1.665-1.132-1.626,1.212-2.22-1.078-1.284,1.719-2.784-.886.484-1.448,2.345,1.09,1.3-1.196,2.191,1.114,1.599-1.116,1.658,1.02,1.544-1.07,1.937,1.241,2.339-66.063-1.238-.843.484,67.747,1.27-1.513-2.85,1.08501-1.965Z" fill="#4f4f4f" isolation="isolate" opacity=".5"/>
          <path d="m107.4403,19.24586l1.267-2.278-.9-1.81.997-2.04-.926-1.858.986-1.525-.922-1.851.98-1.267-1.136-2.283,66.082,1.238.886-.484-67.783-1.27,1.363,2.741-.98,1.267.935,1.876-.985,1.525.942,1.893-.996,2.04.893,1.795-1.546,2.776.84299-.48499Z" fill="#fff" isolation="isolate" opacity=".8"/>
        </g>
        <g id="Clips">
          <g id="red">
            <g>
              <path d="m44.64049,5.20489c2.85072-1.87427,5.89171.14839,7.1027,1.47996l.03352.03719,3.43726,5.59395-1.26892-.05125-3.01311-4.90246c-.15385-.15906-.86315-.86221-1.84561-1.35823-1.40342-.70894-2.70496-.68099-3.86532.0826-3.24103,2.13241-2.01029,5.26696-1.86908,5.5979.54111.89039,12.59319,20.72328,14.18312,22.83537,1.49118,1.98233,3.81767,2.35392,5.78683.92645,1.73976-1.26093.42518-4.58682.28112-4.93556l-11.85286-19.44781.90099-.5472,11.87406,19.4799.03235.06236c.07853.17955,1.89756,4.42035-.61599,6.24266-2.43348,1.76349-5.41427,1.29184-7.24997-1.14613-1.64959-2.19149-13.74483-22.10558-14.25959-22.95176l-.02835-.05334c-.01953-.04354-.48668-1.07568-.44522-2.44273.03893-1.27393.5355-3.08895,2.68209-4.50188Z" fill="#8c8c8c" mix-blend-mode="multiply"/>
              <path d="m44.35188,5.08024c2.85067-1.87477,5.8916.1483,7.10269,1.47996l.03346.03659,3.50782,5.71049-1.34685-.05452-3.00668-5.01512c-.15285-.15917-.86216-.86232-1.84462-1.35834-1.40442-.70883-2.70495-.68099-3.86542.08261-3.24103,2.13251-2.01018,5.26705-1.86904,5.5974.54112.89049,12.59324,20.72377,14.18208,22.83599,1.49227,1.98221,3.81876,2.3538,5.78787.92583,1.73982-1.26043.42524-4.58622.28104-4.93545l-11.85282-19.44742.90104-.5477,11.87412,19.4804.03235.06236c.07853.17955,1.89752,4.41995-.61605,6.24227-2.43343,1.76389-5.41432,1.29225-7.24997-1.14613-1.64954-2.1911-13.74487-22.10517-14.25958-22.95177l-.02846-.05343c-.01937-.04305-.48662-1.07518-.44513-2.44274.03799-1.27332.53556-3.08846,2.68215-4.50128Z" fill="#c6c6c6" mix-blend-mode="multiply"/>
              <path d="m43.9797,4.91894c2.84973-1.87417,5.8916.1483,7.1017,1.48007l.03346.03659,3.59982,5.8606-1.26888-.05165-3.00114-4.89149c-.95378-1.13429-1.03782-1.13931-2.02014-1.63494-1.40352-.70893-2.70496-.68099-3.86542.08261-3.24102,2.1325-2.01018,5.26705-1.86904,5.5974.54112.89049,12.59314,20.72378,14.18307,22.83588,1.49227,1.98221,3.81767,2.35392,5.78679.92605,1.73985-1.26104.42533-4.58633.28112-4.93556l-11.85282-19.44742.90203-.54781,11.87314,19.48061.03224.06227c.07853.17955,1.89861,4.41983-.61595,6.24226-2.43353,1.7639-5.41432,1.29225-7.24997-1.14613-1.64964-2.19109-13.74488-22.10517-14.25859-22.95187l-.02945-.05332c-.01938-.04305-.48662-1.07518-.44511-2.44264.03888-1.27352.53555-3.08856,2.68313-4.50149Z" fill="#d3d3d3" mix-blend-mode="multiply"/>
            </g>
            <g>
              <path d="m42.17076,9.79809c.03899-1.27343.53556-3.08846,2.68214-4.50138,2.84967-1.87466,5.8916.1483,7.10269,1.47996l.03346.03659,3.28331,5.48007-1.26998-.05254-2.85904-4.78668c-.15286-.15917-.86215-.86222-1.84461-1.35824-1.40443-.70893-2.70497-.68109-3.86533.0825-3.24113,2.13252-2.01028,5.26706-1.86913,5.59751.54111.89039,12.59324,20.72377,14.18217,22.83588,1.49319,1.98221,3.81867,2.35381,5.78778.92594,1.73982-1.26053.42523-4.58632.28103-4.93555l-12.03956-19.6554.90104-.5477,7.9239,12.87509-.0503-.00186.0503.00186,4.13697,6.81339.03234.06226c.07853.17955,1.89757,4.42045-.61605,6.24227-2.43343,1.76389-5.41422,1.29224-7.24991-1.14563-1.64959-2.19149-13.74493-22.10567-14.25964-22.95226l-.02841-.05293c-.01944-.04355-.48658-1.07569-.44517-2.44314Z" fill="#f26b6b"/>
              <path d="m51.84676,10.98607l.31571-.15916,11.93443,19.48368c.07339.16934,1.78647,4.15895-.50136,5.81713-2.26857,1.64481-5.04965,1.20299-6.76158-1.07314-1.6393-2.17743-13.72607-22.07664-14.24951-22.94059-.01916-.04016-.45279-.9992-.41324-2.28507.0362-1.19014.50334-2.88849,2.52444-4.21791,1.37481-.90487,2.96414-.94208,4.59629-.1088,1.21712.62122,2.01871,1.49457,2.07176,1.55759l3.1123,5.20056-.42137-.01742-2.97058-4.97288c-.03126-.03391-3.13579-3.37918-6.19531-1.36525-3.61496,2.37849-2.0527,5.91307-1.99423,6.0443.12581.20728,12.59199,20.73075,14.2199,22.89413,1.59114,2.11397,4.17141,2.52508,6.27524.99953,2.05743-1.49162.40168-5.35198.39481-5.36984l-11.93769-19.48685Z" fill="#b74646"/>
              <path d="m52.42754,10.74399l.30028-.18253,12.07096,19.70901c.07447.16912,1.78657,4.15894-.50026,5.81701-2.26878,1.64383-5.04872,1.20329-6.76268-1.07302-1.63831-2.17753-13.72599-22.07675-14.24951-22.94059-.01817-.04027-.45179-.99941-.41324-2.28507.0363-1.19015.50434-2.88859,2.52443-4.21801,1.37491-.90488,2.96514-.94218,4.5974-.10882,1.21702.62123,2.01762,1.49469,2.07065,1.55761l3.15649,5.27189-.42137-.01742-3.01478-5.04421c-.03017-.03403-3.13475-3.37879-6.19421-1.36537-3.61505,2.3786-2.05377,5.91328-1.99422,6.0443.1257.20729,12.59099,20.73086,14.21991,22.89423,1.59003,2.11399,4.17032,2.5252,6.27512.99944,2.05753-1.49163.40081-5.35179.39492-5.36985l-12.05988-19.68859Z" fill="#fc9797"/>
            </g>
          </g>
          <g id="blue">
            <g>
              <path d="m6.98759,1.2965c3.02068-2.27669,6.52888-.25515,7.96323,1.13251l.03996.03812,7.00787,9.87809-1.40689.03389L14.10137,3.23652c-.18186-.16554-1.01556-.8931-2.13917-1.37178-1.60337-.68456-3.04114-.56097-4.27053.3663-3.43394,2.58984-1.84963,5.97099-1.66985,6.32655.66238.94677,15.40856,22.03484,17.31779,24.25878,1.79251,2.0875,4.3922,2.33322,6.47029.61317,1.83401-1.51864.14397-5.10524-.0402-5.48119L15.48489,7.57995l.95927-.67049,14.30909,20.4035.03975.06643c.10053.19337,2.41457,4.756-.23782,6.95133-2.56631,2.12488-5.89831,1.8153-8.10325-.75242-1.98061-2.3071-16.78165-23.48124-17.41066-24.38152l-.03552-.05724c-.02566-.04618-.61484-1.15551-.66604-2.67131-.04772-1.41185.37244-3.4556,2.64789-5.17174Z" fill="#8c8c8c" mix-blend-mode="multiply"/>
              <path d="m6.65848,1.17912c3.02057-2.27719,6.52988-.25518,7.96411,1.13199l.03997.03862,7.09496,10.00146-1.44684.03688L13.77216,3.11864c-.18086-.16507-1.01556-.89309-2.13817-1.37171-1.60337-.68466-3.04115-.56107-4.27052.3667-3.43394,2.58984-1.84964,5.97059-1.66985,6.32655.66137.94679,15.40856,22.03494,17.31779,24.25878,1.79149,2.08702,4.39219,2.33272,6.46928.61319,1.835-1.51906.14495-5.10576-.04022-5.48169L15.15666,7.46205l.95829-.66997,14.30917,20.40349.04066.06641c.09953.19339,2.41456,4.756-.23782,6.95133-2.56732,2.12441-5.89822,1.8148-8.10325-.75242-1.98062-2.3075-16.78166-23.48174-17.41067-24.38192l-.03553-.05724c-.02556-.04628-.61573-1.15509-.66603-2.67091-.04872-1.41183.37244-3.4556,2.64699-5.17172Z" fill="#c6c6c6" mix-blend-mode="multiply"/>
              <path d="m6.23457,1.02699c3.02068-2.27669,6.52989-.25468,7.96413,1.13249l.03907.03864,7.20824,10.1608-1.44271.04168L13.34836,2.96701c-.18086-.16557-1.01555-.8931-2.13817-1.37181-1.60337-.68456-3.04214-.56095-4.27053.3663-3.43494,2.58986-1.85062,5.97102-1.66985,6.32655.66139.94729,15.40847,22.03494,17.31779,24.25878,1.79151,2.08752,4.3912,2.33324,6.46929.61319,1.83501-1.51856.14397-5.10524-.04021-5.48119L14.73287,7.31041l.95827-.67047,14.30908,20.4035.04078.06691c.09951.19289,2.41454,4.7555-.23794,6.95084-2.5672,2.1249-5.8991,1.81532-8.10415-.7524-1.9806-2.3071-16.78165-23.48124-17.41066-24.38192l-.03463-.05686c-.02555-.04618-.61573-1.15499-.66694-2.67129-.04772-1.41185.37244-3.4556,2.64789-5.17174Z" fill="#d3d3d3" mix-blend-mode="multiply"/>
            </g>
            <g>
              <path d="m4.27204,6.34148c-.04772-1.41185.37344-3.45562,2.64799-5.17174,3.02068-2.27679,6.52988-.25528,7.96413,1.13249l.03996.03812,7.04527,10.0066-1.40885.03154L14.03381,3.10965c-.18095-.16546-1.01565-.89299-2.13817-1.37171-1.60347-.68455-3.04124-.56097-4.27063.3663-3.43384,2.58983-1.85052,5.97102-1.66975,6.32654.66138.94679,15.40846,22.03484,17.3177,24.25919,1.79159,2.08662,4.39219,2.33272,6.46928.61279,1.83501-1.51866.14407-5.10524-.04021-5.48119L15.52329,7.5917l.95827-.67047,9.14204,13.02054-.05567.00138.05567-.00138,5.06207,7.24442.04067.06681c.09962.19299,2.41456,4.7561-.23783,6.95093-2.5673,2.12491-5.8992,1.81532-8.10325-.75242-1.98061-2.3071-16.78165-23.48134-17.41056-24.38152l-.03563-.05723c-.02556-.04628-.61574-1.15549-.66704-2.67128Z" fill="#04c4d9"/>
              <path d="m15.60537,7.63018l.33687-.19881,14.05027,20.0475c.09435.18222,2.27274,4.47473-.14037,6.47227-2.39301,1.98124-5.50179,1.69013-7.55893-.7059-1.96756-2.29322-16.75842-23.45211-17.39858-24.37052-.02356-.04293-.57179-1.07355-.61975-2.4991-.04453-1.3196.35158-3.23191,2.49289-4.847,1.4575-1.09897,3.21301-1.25335,5.07928-.44737,1.39033.60101,2.33895,1.50987,2.40211,1.57623l6.83663,9.70938-.46768.0107L13.95453,2.90996c-.03599-.03532-3.70931-3.51561-6.95147-1.07018-3.83094,2.88927-1.85131,6.68956-1.7775,6.83037.15391.22035,15.40866,22.04264,17.36424,24.32055,1.91027,2.22582,4.7948,2.49759,7.01362.65981,2.17191-1.7971.06438-5.95073.0561-5.97003L15.60537,7.63018Z" fill="#29777f"/>
              <path d="m16.22969,7.3207l.31976-.2233,14.21726,20.28704c.09445.18221,2.27384,4.4747-.13938,6.47175-2.39304,1.98034-5.50176,1.69113-7.55981-.70538-1.96766-2.29322-16.75751-23.45213-17.39868-24.37051-.02348-.04343-.57171-1.07406-.61975-2.4991-.04443-1.3196.35168-3.23191,2.49289-4.847,1.4576-1.09898,3.21311-1.25335,5.07937-.44737,1.39033.60101,2.33895,1.50987,2.40212,1.57623l6.89023,9.78527-.46768.0106L14.72883,2.81553c-.03699-.03529-3.70941-3.51561-6.95147-1.07018-3.83094,2.88927-1.85131,6.68956-1.7765,6.83035.15391.22035,15.40766,22.04266,17.36314,24.32058,1.91027,2.22582,4.79489,2.49718,7.01461.65978,2.17101-1.79708.06348-5.9506.0552-5.97L16.22969,7.3207Z" fill="#6df1ff"/>
            </g>
          </g>
        </g>
      </g>
    </g>
  </g>
</svg>