<?xml version="1.0" encoding="UTF-8"?>
<svg id="Layer_2" data-name="Layer 2" xmlns="http://www.w3.org/2000/svg" xmlns:xlink="http://www.w3.org/1999/xlink" viewBox="0 0 280.23126 42.40815">
  <defs>
    <linearGradient id="linear-gradient" x1="430.53586" y1="287.80032" x2="430.53586" y2="289.11727" gradientTransform="translate(670.08433 -234.22757) rotate(-176.19198) scale(.99999 -.99999)" gradientUnits="userSpaceOnUse">
      <stop offset=".25263" stop-color="#3b3b3b"/>
      <stop offset=".42632" stop-color="#636363"/>
      <stop offset=".57895" stop-color="#545454"/>
      <stop offset=".73158" stop-color="#3b3b3b"/>
    </linearGradient>
    <linearGradient id="linear-gradient-2" x1="352.03199" y1="-332.17494" x2="352.03199" y2="-310.65616" gradientTransform="translate(551.46804 -305.8258) rotate(93.80802) scale(.99999 -.99999)" gradientUnits="userSpaceOnUse">
      <stop offset="0" stop-color="#f5dfc1"/>
      <stop offset=".25855" stop-color="#f4ddbf"/>
      <stop offset=".35155" stop-color="#f1d9b8"/>
      <stop offset=".41774" stop-color="#ebd1ac"/>
      <stop offset=".43158" stop-color="#eacfa9"/>
      <stop offset=".52337" stop-color="#e6c69e"/>
      <stop offset=".82885" stop-color="#dbad7f"/>
      <stop offset="1" stop-color="#d7a474"/>
    </linearGradient>
    <linearGradient id="linear-gradient-3" x1="543.39845" y1="283.95088" x2="543.39845" y2="292.98684" gradientTransform="translate(670.08433 -234.22757) rotate(-176.19198) scale(.99999 -.99999)" gradientUnits="userSpaceOnUse">
      <stop offset="0" stop-color="#e69121"/>
      <stop offset=".13392" stop-color="#e79220"/>
      <stop offset=".18216" stop-color="#ec991e"/>
      <stop offset=".21641" stop-color="#f5a51b"/>
      <stop offset=".23684" stop-color="#ffb118"/>
      <stop offset=".2441" stop-color="#ffbb32"/>
      <stop offset=".25567" stop-color="#ffca55"/>
      <stop offset=".26656" stop-color="#ffd46f"/>
      <stop offset=".27638" stop-color="#ffda7e"/>
      <stop offset=".28421" stop-color="#ffdd84"/>
      <stop offset=".30546" stop-color="#ffd46d"/>
      <stop offset=".33787" stop-color="#ffc953"/>
      <stop offset=".37518" stop-color="#ffc03d"/>
      <stop offset=".41872" stop-color="#ffb92c"/>
      <stop offset=".47257" stop-color="#ffb420"/>
      <stop offset=".54813" stop-color="#ffb119"/>
      <stop offset=".75789" stop-color="#ffb118"/>
      <stop offset=".77325" stop-color="#f5a41b"/>
      <stop offset=".80339" stop-color="#e79220"/>
      <stop offset=".83979" stop-color="#dd8623"/>
      <stop offset=".88845" stop-color="#d77f25"/>
      <stop offset="1" stop-color="#d67d26"/>
    </linearGradient>
    <linearGradient id="linear-gradient-4" x1="641.04666" y1="283.95057" x2="641.04666" y2="292.98058" gradientTransform="translate(670.08433 -234.22757) rotate(-176.19198) scale(.99999 -.99999)" gradientUnits="userSpaceOnUse">
      <stop offset=".10526" stop-color="#b95730"/>
      <stop offset=".21912" stop-color="#c4592b"/>
      <stop offset=".2421" stop-color="#c85a2a"/>
      <stop offset=".24713" stop-color="#d06638"/>
      <stop offset=".25743" stop-color="#de7b50"/>
      <stop offset=".26836" stop-color="#e98a61"/>
      <stop offset=".28023" stop-color="#ef936b"/>
      <stop offset=".29474" stop-color="#f1966f"/>
      <stop offset=".42302" stop-color="#e38258"/>
      <stop offset=".64321" stop-color="#cf6536"/>
      <stop offset=".76316" stop-color="#c85a2a"/>
      <stop offset=".76467" stop-color="#c35729"/>
      <stop offset=".77434" stop-color="#ac4b25"/>
      <stop offset=".7855" stop-color="#9a4121"/>
      <stop offset=".79891" stop-color="#8e3b1f"/>
      <stop offset=".81682" stop-color="#87371e"/>
      <stop offset=".8579" stop-color="#85361e"/>
    </linearGradient>
    <linearGradient id="linear-gradient-5" x1="21.34282" y1="7.93449" x2="21.34282" y2="15.56242" gradientUnits="userSpaceOnUse">
      <stop offset=".06316" stop-color="#dedede"/>
      <stop offset=".13407" stop-color="#e3e3e3"/>
      <stop offset=".21878" stop-color="#f1f1f1"/>
      <stop offset=".27368" stop-color="#fff"/>
      <stop offset=".34551" stop-color="#fff"/>
      <stop offset=".76316" stop-color="#fff"/>
      <stop offset=".76422" stop-color="#fafafa"/>
      <stop offset=".77345" stop-color="#dcdcdc"/>
      <stop offset=".7836" stop-color="#c2c2c2"/>
      <stop offset=".79483" stop-color="#afafaf"/>
      <stop offset=".80774" stop-color="#a1a1a1"/>
      <stop offset=".82378" stop-color="#999"/>
      <stop offset=".85263" stop-color="#979797"/>
    </linearGradient>
  </defs>
  <g id="notepage_bottom" data-name="notepage bottom">
    <g id="paper">
      <path d="m.70001,0v16.76752c0,9.78619,7.96387,17.74915,17.75049,17.74915h244.40771c9.57806,0,17.37305-7.79303,17.37305-17.37213V0H.70001Z" fill="#4f4f4f" opacity=".5"/>
      <path d="m0,0v16.06757c0,9.78619,7.96393,17.74908,17.75049,17.74908h244.40771c9.57806,0,17.37311-7.79303,17.37311-17.37213V0H0Z" fill="#f4f4f4"/>
    </g>
    <g id="tape_bottom" data-name="tape bottom">
      <path d="m107.4188,40.65415l1.267-2.28-.9-1.81.997-2.039-.926-1.858.986-1.525-.922-1.851.98-1.267-1.136-2.283,66.082,1.238-1.448,2.345,1.09,1.3-1.196,2.191,1.114,1.599-1.116,1.658,1.02,1.544-1.07,1.937,1.241,2.339-66.063-1.23799Z" fill="#d3d3d3" isolation="isolate" opacity=".3"/>
      <path d="m173.8948,37.59315l-1.003-1.519,1.12-1.665-1.132-1.626,1.212-2.22-1.078-1.284,1.719-2.784-.886.484-1.448,2.345,1.09,1.3-1.196,2.191,1.114,1.599-1.116,1.658,1.02,1.544-1.07,1.937,1.241,2.339-66.063-1.238-.843.484,67.747,1.27-1.513-2.85,1.08501-1.965Z" fill="#4f4f4f" isolation="isolate" opacity=".5"/>
      <path d="m107.4188,40.65316l1.267-2.278-.9-1.81.997-2.04-.926-1.858.986-1.525-.922-1.851.98-1.267-1.136-2.283,66.082,1.238.886-.484-67.783-1.27,1.363,2.741-.98,1.267.935,1.876-.985,1.525.942,1.893-.996,2.04.893,1.795-1.546,2.776.84299-.48499Z" fill="#fff" isolation="isolate" opacity=".8"/>
    </g>
    <g id="pencil">
      <path d="m224.13626,26.22537l-3.22009-.94617c-.00055-.00549.00024-.01093-.00031-.01642l-14.64227-4.28455c.00031.00006.00061.00006.00092.00012l-1.12946-.33057c-.00043-.00006-.00079-.00012-.00122-.00018l-.06927-.02026c-.2276-.07178-.46051-.11035-.69427-.12842-.00244-.00018-.00482,0-.00726-.00018.00037-.00092.00104-.00159.0014-.00256L22.74204,8.40041h0l-.46527-.03101h0L3.46537,7.11672c-.26031-.0174-.51978.04913-.73334.19861-.56256.39392-1.47302,1.4826-1.66974,4.43512-.14069,2.11383.46942,3.27655.95923,3.85748.26685.31793.65631.50562,1.0705.53314l8.50256.56628v.00012l9.46399.63025h0l.00751.00049,183.59906,12.22668c-.00159-.00232-.00354-.00366-.00513-.00598l10.89191-1.68378h0l.02423-.00372,2.87445-.4444.02863-.00439h-.00018l2.31689-.35815.00378-.01544,3.31671-.5155c.16675-.02625.18243-.26068.01984-.30817Z" fill="#4f4f4f" opacity=".5"/>
      <path d="m218.74858,23.55678l5.15818,1.51558c.16261.04753.1469.28197-.01982.3082l-5.31489.82607.17654-2.64984Z" fill="url(#linear-gradient)"/>
      <path d="m202.37628,19.73719c.75064-.42727,1.64485-.52275,2.46877-.26286l15.84131,4.63544h0c.06147.59644.02273,1.19954-.1154,1.78327l-.00453.01845-16.15267,2.49701c-.84283-.14413-1.8883-.06803-2.57557-.59081l-5.97309-4.00836.05924-.89135,6.45195-3.18079Z" fill="url(#linear-gradient-2)"/>
      <path d="m208.17832,23.74865c.17226.01217.34375.02561.46922.03997s.20844.02782.20844.02782c0,0-.0842.00437-.21116.00265-.12714.0002-.29836-.00717-.47153-.01544-.17417-.01235-.35037-.02526-.48374-.04093-.13476-.01486-.22453-.02889-.22453-.02889,0,0,.09154-.00387.2273-.00281.13431.00027.31083.00864.48599.01763Zm10.6714,1.6572c.1031-.0079.17216-.01653.17216-.01653,0,0-.06589-.01113-.16636-.02098-.10177-.00955-.23974-.0167-.37995-.01948-.14241-.00144-.28773.00225-.39873.00884-.11228.00777-.18809.01743-.18809.01743,0,0,.07309.01143.18291.02143.10842.00992.25166.01735.39404.01895.1403.00139.28036-.00258.38401-.00967Zm-9.61933-1.24629c.29536.01369.58566.02041.80072.01867.21117-.00176.35136-.00925.35136-.00925,0,0-.13685-.02163-.34633-.04486-.2128-.0235-.50141-.04673-.79656-.0625-.30108-.01529-.61009-.02323-.84574-.02306-.23891.00151-.40116.00857-.40116.00857,0,0,.15943.02392.39604.04977.23389.02428.54059.04736.84167.06266Zm10.16446,1.70591c.07363-.00653.12274-.01448.12274-.01448,0,0-.0468-.00719-.11903-.0119-.07224-.00561-.17049-.00937-.2697-.00799-.10117.00047-.20337.00642-.28112.01323-.07827.00672-.13137.01516-.13137.01516,0,0,.05066.00739.1276.01246.07554.00498.17707.00918.27764.00718.09997-.0007.19883-.00674.27324-.01366Zm-2.55345-.61339c.09413-.00445.15717-.01208.15717-.01208,0,0-.06059-.01014-.15305-.0183-.09353-.00818-.21923-.01656-.34759-.01837-.13028-.00287-.26155.00045-.36243.00504s-.16917.01284-.16917.01284c0,0,.06588.01025.165.01877.09875.00863.2293.01669.35886.01871.12836.0018.25574-.00154.35122-.00662Zm-4.15176-.37895c.13208-.00387.22033-.0119.22033-.0119,0,0-.08553-.01306-.21649-.02456-.13175-.012-.31047-.02467-.49193-.02937-.184-.00623-.37163-.00536-.51446-.00173-.14388.00449-.24172.01267-.24172.01267,0,0,.09567.01372.23804.02576.14076.0121.32644.02449.51035.02929.18201.0055.36257.00366.49588-.00016Zm-4.10182,1.69083c-.40155.01257-.81496.03548-1.13285.06163-.3246.02702-.54546.05493-.54546.05493,0,0,.21742.01304.53849.01988.31564.00564.72722.00186,1.1289-.01139.39151-.01375.77434-.03691,1.05559-.06216.27655-.02471.45842-.04862.45842-.04862,0,0-.17811-.0131-.45189-.02008-.27833-.0073-.65916-.00607-1.0512.0058Zm-2.52207-2.69303c-.17729-.0071-.35648-.01437-.49148-.01477-.13711-.00044-.22917.00334-.22917.00334,0,0,.09079.01333.22713.02637.13414.01439.31301.02621.48936.03738.17517.00705.34843.01392.47761.01322.12773.00044.2132-.00315.2132-.00315,0,0-.08371-.01235-.21067-.0254-.12823-.01381-.30113-.0254-.47598-.03699Zm5.7153.42582c.18827.00987.3745.01174.51293.01083.13729-.00148.22816-.00742.22816-.00742,0,0-.08815-.01513-.22359-.03013-.13735-.01517-.32195-.03143-.51052-.04065-.19018-.01005-.38506-.01301-.53284-.01227-.14921.00084-.24998.0067-.24998.0067,0,0,.09868.01658.24613.0317.14593.01572.33926.03256.5297.04124Zm1.734.58607c.07854.00784.18206.01277.28499.01705.10293.00145.20464.00285.28018-.00066.07672-.00223.12696-.00678.12696-.00678,0,0-.04947-.00806-.12352-.01435-.0754-.00762-.17684-.01321-.27845-.01796-.10362-.00158-.20795-.00312-.28684.0003-.07999.00268-.13358.00713-.13358.00713,0,0,.05213.00802.13026.01526Zm.87333.08541c-.09109-.00135-.18282-.00212-.25301.00116-.07006.0026-.11758.00677-.11758.00677,0,0,.04612.00707.11491.01308.06874.00725.1605.01067.25146.01465.09037.00139.18012.00143.24758-.00148.06675-.00287.11164-.00718.11164-.00718,0,0-.04344-.00621-.109-.0125-.06604-.00656-.15576-.01049-.24599-.01451Zm-2.14102-.28898c.23135.02274.53416.04296.83102.0534.29087.00931.5764.01036.78711.00443.20732-.00674.34461-.01759.34461-.01759,0,0-.13385-.0216-.33731-.04388-.20758-.02111-.49111-.04126-.78177-.05265-.29673-.01112-.60207-.01412-.8368-.00846-.23784.00614-.40043.01791-.40043.01791,0,0,.15875.0238.39358.04683Zm3.78871.71155c.133.00161.26579-.0023.36465-.00835.09753-.00558.16264-.01388.16264-.01388,0,0-.06262-.00876-.1586-.01705-.09731-.00783-.22781-.01517-.36153-.01674-.13427-.00238-.2717.00173-.37599.00746-.10551.00568-.17585.01353-.17585.01353,0,0,.06847.01056.17172.0188.10266.0076.23809.01515.37295.01623Zm-10.30606,1.52139c.20494.0022.47468-.00043.74085-.01133.26154-.00982.52026-.02727.71174-.04388.18882-.01659.31437-.03284.31437-.03284,0,0-.12338-.00759-.31091-.01006-.19009-.00207-.44713-.00113-.70931.00929-.26616.00896-.53695.0275-.74367.04426-.2088.01743-.34989.03537-.34989.03537,0,0,.13938.00723.34683.0092Zm11.42522-1.21791c.091-.00663.15208-.01516.15208-.01516,0,0-.05859-.00852-.1481-.01453-.09074-.00607-.21207-.01133-.33663-.01171-.12502.00024-.25245.0057-.34951.0126-.09758.00681-.16405.01575-.16405.01575,0,0,.06385.0088.15998.01535.09477.00629.22163.01135.34597.01098.12451-.00034.24806-.00687.34026-.01328Zm-8.72177,1.48701c-.17676.01743-.29581.0349-.29581.0349,0,0,.11739.00647.29183.00613.17235-.00056.39973-.00476.62478-.01632.22173-.01182.44051-.03056.60329-.04708.16032-.01663.2672-.03338.2672-.03338,0,0-.10424-.00488-.26377-.00564-.1611.00002-.37829.00277-.6001.01405-.22492.01087-.45308.02963-.62741.04733Zm-9.57635-1.99076c-.17997.00533-.30099.01251-.30099.01251,0,0,.12044.01005.29962.01928.17766.00982.41303.0149.64492.01968.22961-.00007.45588-.00024.62537-.00629.16741-.00537.27837-.01269.27837-.01269,0,0-.11064-.00945-.27692-.01855-.16845-.00987-.39515-.01491-.62513-.01951-.23208-.00092-.46708-.00045-.64524.00557Zm2.8188.63702c-.16763.00746-.28063.01722-.28063.01722,0,0,.11254.00874.27927.01456.16527.00696.38402.00822.60026.00865.21388-.00303.42522-.0076.58275-.01501.15629-.00835.25936-.01802.25936-.01802,0,0-.10198-.00747-.25796-.01393-.15602-.00629-.36733-.00845-.58102-.00928-.21648.00271-.43571.00687-.60202.01581Zm1.35178.72759c.24008.00455.55604.00565.86686-.0036.30525-.00693.60579-.0236.8286-.03929.21991-.01535.36491-.03237.36491-.03237,0,0-.14322-.00937-.36187-.01397-.22137-.00422-.52072-.0061-.82662.00142-.31068.00662-.62718.02348-.86931.03925-.24454.01639-.4103.03465-.4103.03465,0,0,.16378.01022.40773.01391Zm15.62264-.52502c.07911-.00745.13231-.01639.13231-.01639,0,0-.05075-.00688-.12837-.01119-.07755-.00465-.18256-.00826-.29043-.00604-.10788.00134-.21829.00857-.3019.01642-.08447.00768-.14155.0166-.14155.0166,0,0,.05536.00686.13765.01169.08212.0048.1904.00797.29905.00536.10669-.00156.21361-.0091.29323-.01645Zm-4.40171-.65992c.11509.00834.26704.01652.41808.01727.14958.00189.29827-.00275.40845-.00879.10964-.00596.18205-.01449.18205-.01449,0,0-.06983-.00993-.1778-.01852-.10864-.00783-.25574-.01634-.40542-.01772-.15098-.00198-.30497.00167-.42174.00789-.11765.00623-.19733.01481-.19733.01481,0,0,.07701.01127.19371.01956Zm-3.93745-.60955c.27369.0075.54258.00755.74122.00272.19675-.00607.32647-.01622.32647-.01622,0,0-.12715-.01769-.32094-.03585-.19656-.01851-.46432-.03498-.73728-.04447-.27883-.00935-.56282-.01099-.78075-.00625-.22153.00602-.37117.01669-.37117.01669,0,0,.14637.01899.36534.03887.21575.0191.49896.03529.7771.04451Zm-3.29224-.31241c.19447-.00242.32343-.01042.32343-.01042,0,0-.12724-.01717-.31986-.03405-.19579-.01694-.46078-.03591-.73098-.04594-.27482-.0109-.55419-.01362-.7673-.01187-.2157.00233-.3621.00989-.3621.00989,0,0,.14392.01889.35894.03714.2118.01747.4902.03665.76432.04565.27028.01058.53632.01168.73356.0096Zm1.94258.27101s-.19589-.02493-.49642-.05163c-.30626-.02636-.72537-.05037-1.15703-.06506-.4436-.01427-.90062-.01743-1.25235-.01091-.36005.00744-.60455.02171-.60455.02171,0,0,.24108.02935.59848.0577.3488.02798.80378.05235,1.24746.06522.43126.01214.85245.01281,1.16114.00546.30394-.00842.50326-.0225.50326-.0225Zm-5.85272-1.34082s.27613.04071.68242.08585c-.03751-.00103-.07999-.00298-.11357-.00327-.15277-.00285-.25607-.00047-.25607-.00047,0,0,.10207.01545.25398.0323.15135.01603.35077.03065.54752.04441.19561.01036.38868.01918.53297.02008.04693.00085.07835.00038.11323.00038.12069.00868.23888.01849.35962.02594.49333.02945.97265.04672,1.32363.05085.34477.00226.57069-.00452.57069-.00452,0,0-.22256-.0356-.56396-.07564-.3487-.03981-.82707-.08293-1.32005-.11515-.50763-.03249-1.03129-.05401-1.43557-.0609-.41341-.0063-.69485.00015-.69485.00015Zm15.79747,1.07679c-.07986.002-.13355.00696-.13355.00696,0,0,.05183.0115.129.02193.07727.00991.17974.02136.28118.02608.10071.0067.20195.00677.27663.00504.07447-.00159.12403-.00626.12403-.00626,0,0-.0478-.01128-.12039-.02067-.07314-.0102-.17227-.02155-.27293-.02754-.10216-.00556-.20522-.00632-.28397-.00554Zm-1.37616.5286c.11487.01237.26663.02246.41676.02711.14873.00457.29524.00305.40478-.0024.10899-.00538.18141-.0139.18141-.0139,0,0-.0691-.01192-.17547-.02428-.10706-.01249-.25278-.02269-.40083-.02801-.15064-.00475-.30381-.0036-.42137.00123-.11817.00613-.19792.01417-.19792.01417,0,0,.0769.01374.19266.02609Zm-.39214-.82742c.05531-.00041.092-.00255.092-.00255,0,0-.03537-.00771-.08955-.01522-.05333-.00825-.12615-.01449-.20008-.02147-.07368-.00357-.14876-.00723-.20526-.00615-.05749.00071-.09613.00284-.09613.00284,0,0,.03745.00703.09341.01542.05541.00845.13018.01471.20372.02091.07351.00354.14716.00728.20188.00623Zm-10.4088-1.97433s-.23109-.04676-.5848-.10417c-.36221-.0574-.85828-.12313-1.37035-.17912-.52795-.0572-1.07265-.10338-1.49345-.12877-.43035-.02542-.72341-.03159-.72341-.03159,0,0,.29056.05528.71863.12116.41784.06378.96084.13319,1.48836.18889.51162.05271,1.00949.09187,1.37355.11209.35749.01846.59147.02151.59147.02151Zm3.5805.84274c.15938.00533.26518.00378.26518.00378,0,0-.10368-.02106-.26119-.04481-.15956-.02324-.37531-.05083-.59564-.07097-.22286-.0208-.45018-.03392-.62343-.04079-.17466-.00696-.29318-.0055-.29318-.0055,0,0,.1163.02361.28897.04772.172.02487.39789.05313.62081.07269.22024.02065.43712.03182.59849.03787Zm5.58703,1.13143c.1038-.00033.17267-.0051.17267-.0051,0,0-.06626-.01386-.16855-.02723-.10226-.01354-.24091-.02931-.38283-.03809-.14235-.01027-.28785-.01317-.3984-.01269-.11186-.00012-.18663.00496-.18663.00496,0,0,.07292.01422.18238.02805.10896.01462.25221.02949.39553.03835.14107.0095.28145.01143.38583.01174Zm4.64415.67075s-.04263-.0096-.10869-.01793c-.06603-.00851-.15526-.01694-.24549-.02097-.09151-.00479-.18482-.00373-.25543-.00106-.07146.00251-.12046.008-.12046.008,0,0,.04669.00966.11606.01826.06924.00929.16107.01804.25266.02143.09092.00415.18092.00282.2489,0,.06675-.00287.11245-.00774.11245-.00774Zm-22.07903-1.58488c-.73125-.04263-1.48944-.0719-2.07772-.08307-.17994-.00335-.33525-.0049-.47544-.00591l-.00402.06191c.14053.01524.29646.03142.47779.04902.58607.05501,1.34307.11133,2.07375.15137.70563.03764,1.38773.06112,1.8843.06764.48485.00484.80221-.00247.80221-.00247,0,0-.31464-.04298-.79783-.09248-.4952-.04963-1.17708-.10441-1.88304-.146Zm7.5832-3.41674l-1.12948-.33055c-.10001-.01418-.2116-.03177-.30131-.04331-.40647-.05173-.68315-.07537-.68315-.07537,0,0,.27401.0727.67714.16488.3949.08886.90775.19155,1.40571.27923.01077.00202.02027.00327.03108.00512Zm14.42793,5.62988c.04217-.00305.07041-.00731.07041-.00731,0,0-.02633-.00495-.06787-.00903-.041-.00416-.09681-.00579-.15327-.00772-.05671.00033-.11386.0011-.15746.00424-.04408.00376-.07368.00776-.07368.00776,0,0,.02842.00516.07064.00937.04294.00417.09944.00593.15593.00769.05719-.00006.11314-.00106.1553-.005Zm-17.1707,2.37327c-.42088.02593-.85195.06181-1.18237.09623-.03364.00378-.06079.00699-.09208.01051.03102.01768.05953.03932.09162.05508.32809-.00601.75668-.02394,1.17605-.05033.41111-.0267.81281-.06173,1.10917-.09387.29177-.03318.48325-.06113.48325-.06113,0,0-.18934-.00511-.4791-.00058-.2945.00435-.69551.01967-1.10654.04409Zm16.2907-2.54102c.04507.0051.10611.00718.16591.00921.05985-.00008.1197-.00018.16463-.00378.04471-.0024.07483-.0063.07483-.0063,0,0-.02893-.00526-.07174-.01011-.04438-.00497-.10338-.00755-.1637-.00968-.06002.00006-.12056.00002-.16743.00361-.04603.00286-.07759.00685-.07759.00685,0,0,.02948.00518.07509.0102Zm-12.13661-2.42274c.11299.00352.1883.00314.1883.00314,0,0-.0744-.01291-.18578-.02976-.11327-.01614-.26544-.03162-.41884-.04715-.15561-.01223-.31319-.02341-.43212-.02734-.12016-.00398-.20069-.00406-.20069-.00406,0,0,.07953.01387.19896.03117.11803.01721.2747.03229.42932.04788.15431.01163.30734.02249.42084.02611Zm9.1498,2.06289c-.08185-.00156-.16437-.00237-.22712.0009-.06335.00173-.10556.0069-.10556.0069,0,0,.04072.00659.10293.01278.0614.00675.14365.01087.22531.01435.08116.00143.16157.0022.22237-.00108.06003-.002.10097-.006.10097-.006,0,0-.03882-.00729-.09843-.01318-.05928-.00671-.13962-.01064-.22047-.01468Zm1.4977-.31423c.08139-.0026.13702-.00755.13702-.00755,0,0-.05336-.01091-.13309-.02092-.04107-.0047-.08786-.01101-.1396-.01453-.05164-.00403-.10656-.00851-.16288-.01218-.05578-.0018-.11223-.00284-.1661-.00446-.05305-.00217-.10383.0005-.14697.00019-.08805.00223-.14695.00763-.14695.00763,0,0,.05705.01107.14292.02135.0424.00425.09183.01158.14551.01511.05228.00345.10847.0078.16492.01168.05581.00163.11155.00272.16333.00412.05192.00161.09997-.0007.14188-.00043Zm-9.86271-1.09941c.08797.00855.18949.0232.29745.03179.10782.0084.22178.01811.33419.02753.11336.00624.22481.0123.32833.01723.10347.00615.19997.00604.28171.00812.16215.00284.27021-.00129.27021-.00129,0,0-.10583-.019-.26699-.03846-.08126-.00942-.1762-.02229-.27881-.03112-.10394-.00837-.2158-.01787-.32757-.02789-.11336-.00624-.22744-.01244-.33555-.01841-.10872-.00643-.21117-.00673-.29873-.0099-.1782-.00319-.29895.00069-.29895.00069,0,0,.11776.02052.2947.04171Zm4.97695.94976s.08356.0141.20844.02782c.12416.01287.28771.02713.45031.03323.1606.00733.31962.00799.43825.00601.11794-.0021.1956-.00841.1956-.00841,0,0-.07568-.01368-.19126-.02601-.11698-.01241-.27446-.02694-.43502-.03355-.16256-.00822-.32752-.00929-.45352-.00764-.12715.00214-.21279.00854-.21279.00854Zm2.16983.18836c.1803.01934.41794.03778.6516.04731.22908.00939.45529.01045.62202.00494.16482-.00569.27451-.01571.27451-.01571,0,0-.10583-.01899-.26686-.03914-.16374-.01889-.38763-.03704-.61717-.04775-.23352-.01022-.47302-.01219-.6569-.00777-.1868.00493-.31327.01569-.31327.01569,0,0,.12247.02088.30607.04244Zm-.0387.10992c.07667-.00295.12832-.00741.12832-.00741,0,0-.05006-.00869-.12546-.0163-.07583-.00911-.17922-.01472-.28333-.02028-.10506-.00238-.21138-.00465-.29218-.00141-.08126.00192-.13617.00682-.13617.00682,0,0,.0532.00893.13331.0169.07917.0092.18536.01498.28943.01983.10493.00307.20803.00456.28608.00186Zm-3.78116-1.23624c.19267.01565.3832.02293.52467.0256.13962.00215.23315-.001.23315-.001,0,0-.09061-.01808-.22917-.0372-.13989-.01866-.32878-.04121-.52142-.05615-.19533-.01562-.39376-.02421-.5453-.02699-.15284-.0034-.2561-.0003-.2561-.0003,0,0,.10117.01935.25229.03941.14892.02053.34644.0424.54186.05663Zm2.3614.49075c-.12016-.01531-.28408-.03229-.45049-.04265-.16895-.0119-.34039-.01525-.47071-.016-.13173-.00084-.2206.00389-.2206.00389,0,0,.08666.01646.21679.03239.1287.01603.29859.03324.46704.04311.16696.01117.33174.01415.45421.01431.12107.00008.20264-.00443.20264-.00443,0,0-.07893-.01518-.19889-.03063Zm5.78395,1.44209c.0716-.00514.11939-.01263.11939-.01263,0,0-.04547-.00766-.11567-.01376-.07078-.00674-.16555-.01303-.26267-.01339-.09781-.00138-.19788.00267-.27321.00693-.0763.00567-.12809.01277-.12809.01277,0,0,.04934.00874.12411.01499.07422.00633.17216.01268.27011.01338.09627.00109.19389-.00306.26603-.00828Zm-2.27387-.67311c.08434.0015.16953.00316.23212.00075.06348-.00242.1056-.00708.1056-.00708,0,0-.04076-.0073-.10203-.01474-.06216-.00743-.14627-.01295-.2306-.01729-.08558-.00244-.172-.00416-.23751-.00123-.06666.00146-.11082.00662-.11082.00662,0,0,.04267.00748.10743.01522.06407.00761.15022.01263.23583.01774Zm2.08968.27013c.07346-.00373.12239-.00976.12239-.00976,0,0-.04662-.00911-.11854-.01731-.07196-.00802-.17003-.01653-.26901-.01919-.10081-.00335-.20278-.00144-.28026.00206-.07817.00338-.13109.00991-.13109.00991,0,0,.05065.00933.12719.01839.0754.00761.17674.01567.27696.01838.09903.00337.19833.0006.27238-.00248Zm-5.22177,1.18893c-.07367.00581-.12337.01312-.12337.01312,0,0,.04824.00517.12058.00742.07228.00348.16881.00321.26421.00236.09536-.0044.1895-.00796.26045-.01534.07033-.00591.1173-.01284.1173-.01284,0,0-.04544-.00499-.11522-.00765-.06897-.00322-.16287-.00279-.2581-.00192-.09608.00355-.19216.00799-.26585.01486Zm-8.08789-4.8658c-.12439-.00973-.20813-.01253-.20813-.01253,0,0,.08265.01801.20576.04024.12229.02279.28441.04562.44528.06752.15865.01864.31641.03641.4343.04492.11718.00855.19502.01166.19502.01166,0,0-.07681-.01708-.1924-.03879-.1172-.02166-.27408-.04404-.4337-.06605-.1603-.01931-.32281-.03814-.44613-.04697Zm10.90929,1.87324s-.03583-.00903-.09055-.01931c-.05434-.01038-.12902-.01998-.20352-.02954-.07601-.00719-.15218-.01354-.21007-.01538-.05841-.00194-.0978-.00049-.0978-.00049,0,0,.03808.00839.09526.01966.05649.01026.13304.02021.20767.02909.07537.00778.15027.01335.20608.01498.05649.00176.09293.00099.09293.00099Zm.79823.45705c.05591.00112.09263-.00119.09263-.00119,0,0-.03461-.00897-.08941-.01785-.05447-.0097-.12851-.01794-.20251-.02546-.07474-.00642-.15099-.01136-.20826-.01185-.05782-.0013-.09717.00087-.09717.00087,0,0,.03795.00907.09454.01882s.13131.01812.206.02577c.0749.00557.149.01064.20419.01091Zm-5.22589-1.70833c-.13699-.0105-.23-.01204-.23-.01204,0,0,.09084.02343.22618.05027.13404.02624.31089.05733.487.08102.17349.02355.34552.03975.47267.04894.12654.0096.21026.01063.21026.01063,0,0-.08171-.02207-.20574-.04696-.12628-.02513-.2965-.05569-.46927-.07928-.17547-.02428-.35463-.04217-.49111-.05258Zm7.21809,2.07522s-.04648-.01174-.11694-.02302c-.07114-.01141-.16732-.02434-.26531-.0323-.09858-.0086-.19969-.0113-.27609-.01167-.07655-.00057-.12932.00333-.12932.00333,0,0,.04962.01197.12538.02426.07436.0122.17399.0256.27283.03283.0979.00847.19561.01036.26875.01117.07196-.00047.12071-.00459.12071-.00459Zm-9.11102-1.92249c.27003.03266.53596.05693.73276.06946.1943.01171.3232.01343.3232.01343,0,0-.12569-.03016-.31768-.06639-.19397-.03608-.45858-.0778-.72859-.11241-.27587-.03358-.55704-.0616-.77297-.07595-.21853-.01466-.36693-.01722-.36693-.01722,0,0,.14556.03371.36193.07399.21304.03824.49304.08091.76827.11508Zm3.12739.51053c.12085.02198.28163.04722.44083.06579.15654.0186.31279.03024.42878.03663.1154.00574.19135.00479.19135.00479,0,0-.07382-.01883-.18709-.03974-.11432-.02094-.26903-.04645-.42557-.06505-.15979-.01921-.32131-.03202-.4446-.03818-.12392-.00752-.20802-.0065-.20802-.0065,0,0,.08193.01999.20431.04227Zm-1.25902.26682c-.13436-.02169-.31712-.04769-.50222-.066-.18764-.01983-.37908-.0326-.52517-.03897-.14728-.0066-.24663-.00455-.24663-.00455,0,0,.09722.02056.24273.04417.14352.02288.33355.04884.52209.06672.18501.0197.36868.03047.50531.03631.13472.00565.22396.00364.22396.00364,0,0-.08708-.01989-.22007-.04133Zm6.01414,1.25236s-.05238-.01143-.13196-.02408c-.08053-.01141-.1894-.0246-.30012-.03264-.1125-.00803-.22558-.01103-.31201-.0108-.08783.00014-.14678.00483-.14678.00483,0,0,.05642.01254.14211.02474.0844.01249.1973.0259.30921.03329.11072.00805.22096.01017.30285.00962s.13671-.00496.13671-.00496Zm-9.69473-1.90147c.11149.00678.18527.007.18527.007,0,0-.07286-.01545-.18265-.03413-.11126-.0193-.26105-.03805-.41295-.05684-.15271-.0154-.30815-.03043-.42554-.0369-.11866-.00723-.19838-.00787-.19838-.00787,0,0,.07872.01726.19585.03643.11652.01958.27105.03851.42415.05753.15203.01528.30216.02931.41426.03478Zm-4.69775,3.09282c-.3029.01233-.50889.02799-.50889.02799,0,0,.20373.01897.50544.03562.29641.01566.68428.0269,1.06417.02885.37258.00218.73656-.00541,1.00548-.01687.26431-.01232.43902-.0273.43902-.0273,0,0-.17194-.01671-.43426-.03288-.2673-.01515-.62986-.0273-1.00236-.03088-.38047-.00259-.76964.00345-1.06859.01546Zm9.54031-2.12405c-.16469-.01571-.3331-.02485-.4606-.02933-.12954-.00397-.21683-.00107-.21683-.00107,0,0,.08525.01831.21239.03794.12583.01903.29279.04153.45757.05584.16329.01562.32517.02372.44477.02688.11957.00334.19884.0007.19884.0007,0,0-.07732-.01717-.19458-.03565-.11849-.01854-.27813-.04038-.44156-.05532Zm2.98545.46227s-.10747-.02444-.2727-.0514c-.16803-.02713-.39625-.05619-.63058-.07718-.23879-.01989-.48423-.03359-.67164-.03674-.19153-.00287-.3209.00258-.3209.00258,0,0,.12588.0263.31289.05611.18454.02882.42818.05776.66701.07836.23442.0196.4645.03024.63616.03239.16831.00116.27976-.00411.27976-.00411Zm-7.50255-2.58998c-.17323-.03625-.4081-.07983-.64725-.11572-.24241-.03738-.49072-.06596-.67913-.08453-.19111-.01925-.3198-.0259-.3198-.0259,0,0,.12705.03236.31613.07088.1871.03779.43314.08223.67632.11834.23919.0366.47502.06284.65024.07999.17261.01595.28743.02106.28743.02106,0,0-.11254-.02946-.28394-.06413Zm8.69324,5.16785s.03159.00239.06926.00451l.16571-.02553c-.05501.00259-.11091.00519-.15303.00985-.0488.00535-.08194.01117-.08194.01117Zm1.12265-.65676c.07623-.00622.12664-.01357.12664-.01357,0,0-.04879-.00792-.12287-.01405-.07418-.00561-.17494-.01108-.27742-.01121-.10456-.00034-.20922.00461-.28948.0106-.08101.00532-.13551.01367-.13551.01367,0,0,.0521.00819.13086.01395.07894.00668.183.01153.28612.01107.10316.00026.2054-.00497.28167-.01048Zm-14.72361,2.77444l.30884-.04768c-.1338.01116-.26702.02296-.3963.0355.02875.00434.05898.00736.08746.01218Zm13.39145-2.0701l.08076-.01245c-.00677-.00074-.05535-.00597-.13325-.00874-.08552-.00367-.19997-.00604-.31672-.00177-.11663.00359-.23633.01226-.32815.0214-.09109.00998-.15312.01975-.15312.01975,0,0,.06017.0067.14982.01008.08896.00325.20722.00511.32483.00099.11658-.0043.23243-.01317.3189-.02207.02348-.00249.03823-.00468.05693-.00718Zm2.55345-.59498c.08589-.00016.17117-.00557.23628-.01104.00174-.00835.00212-.01695.0039-.02547-.06322-.00461-.14654-.00964-.23324-.00893-.08852.00002-.17874.00538-.24754.01069-.06896.00617-.11603.01361-.11603.01361,0,0,.04472.00698.11231.01277.06684.00512.15567.00906.24432.00836Zm-10.03983,1.30939c-.12085.00722-.24254.01517-.33564.02548-.09318.00976-.15582.01906-.15582.01906,0,0,.0618.00275.15353.00352.0919.0008.21388-.00303.33462-.00779.11962-.00727.23868-.01536.32783-.02535.08851-.0094.14768-.01811.14768-.01811,0,0-.05777-.00253-.14559-.00433-.0877-.00054-.20641.00284-.32661.00752Zm5.12401-3.92693c.10736.01839.24902.03987.38913.05449.13884.01386.27724.02251.38018.02679.10169.00334.16954.00122.16954.00122,0,0-.06544-.01636-.16597-.03436-.10066-.01731-.2371-.03833-.37649-.05301-.14015-.01535-.28317-.02486-.39149-.02874-.1101-.00475-.18419-.00237-.18419-.00237,0,0,.07138.01677.1793.03597Zm3.31558.42l-.2715-.07949c-.00423-.00009-.01045-.0009-.01451-.00096-.11024-.00212-.18569.00089-.18569.00089,0,0,.07201.01813.18039.03866.07989.01483.18733.0281.29131.0409Zm1.93169.75791c-.00041-.00627.00012-.0129-.00046-.01921-.01043-.00196-.01707-.00338-.02927-.00532-.06448-.01016-.15218-.02203-.241-.02791-.09065-.00747-.18174-.00881-.25162-.00813-.07005.00065-.11757.00483-.11757.00483,0,0,.04521.01096.11368.02152.06796.01046.1577.02183.2478.02848.08934.00598.17851.00715.24512.00691.01365-.00009.02156-.00073.03332-.00118Zm-.01171.87107c.00029-.00437.0015-.00892.00199-.01343-.01637-.00237-.0322-.00481-.05492-.00731-.06462-.00753-.15144-.01463-.23977-.01653-.08909-.00257-.17966-.00011-.24929.00399-.06933.00344-.11632.00949-.11632.00949,0,0,.04467.0091.11273.01621.06734.00716.15679.01441.24581.01643.08838.00261.17706-.0002.24305-.00374.02332-.00164.03975-.00333.05672-.0051Zm-.05281.35281c.0014-.00841.00246-.01688.00369-.02533-.04624.00017-.09349.00103-.12914.00425-.03941.0034-.06557.00698-.06557.00698,0,0,.02557.00427.06339.00748.03462.0042.08114.00533.12763.00662Zm-8.5101.42212c.1811-.00192.36011-.01061.49299-.01965.13256-.00927.21985-.02067.21985-.02067,0,0-.08521-.0091-.21546-.01497-.13132-.00678-.3093-.01206-.4904-.01014-.18322.00188-.37009.00998-.51186.01929-.14293.0098-.24032.02125-.24032.02125,0,0,.09521.00956.23663.01629.13981.00679.32543.01102.50857.00859Zm-1.01139-.53515c.14654.00965.33902.01782.53056.01874.18766.00179.37425-.00389.51251-.01049.13761-.00691.22874-.01617.22874-.01617,0,0-.08906-.01124-.22426-.02088-.13708-.0091-.32229-.01734-.50976-.01926-.19166-.00218-.38556.00282-.53306.00964-.14962.00677-.25074.01735-.25074.01735,0,0,.09903.01187.246.02106Zm2.5678.45782c.07227-.0059.11984-.0113.11984-.0113,0,0-.04684-.00508-.11708-.00907-.07079-.0048-.16673-.00582-.26313-.00622-.09804.00265-.19598.00479-.27034.01048-.07559.00563-.12574.01161-.12574.01161,0,0,.04888.00458.12312.00896.07363.0048.1714.00546.26852.00582.09654-.00223.19338-.0051.26481-.01028Zm1.14314.68575c.11114-.01117.18447-.0236.18447-.0236,0,0-.07142-.00616-.18038-.00945-.10892-.00258-.25791-.00383-.40809.00213-.15268.00514-.308.01686-.4259.02817-.11916.01144-.19924.02401-.19924.02401,0,0,.07813.00724.19503.00972.11626.00307.27006.00328.42286-.00255.15073-.00515.30063-.01718.41126-.02845Zm-5.10204-.59194c-.09564.00682-.15985.01317-.15985.01317,0,0,.06344.00625.15839.01063.09409.00422.21916.00469.34303.00494.12328-.00322.24602-.00637.33766-.01359.09084-.00578.15122-.01249.15122-.01249,0,0-.05941-.00602-.14913-.00995-.09078-.00395-.21248-.00539-.33576-.00499-.12452.00228-.24985.00601-.34556.01228Zm-8.34858-1.47853c.26639.01905.61636.03981.96047.04938.33808.01056.67017.01062.91518.00777.24261-.00329.40295-.01248.40295-.01248,0,0-.15848-.01861-.39961-.03734-.24423-.01825-.57577-.03821-.91313-.04882-.34474-.01093-.69593-.01298-.96376-.01017-.27166.00244-.45534.01149-.45534.01149,0,0,.18233.02079.45325.04016Zm11.34038,1.58652c.16986.008.39323.01101.61457.00691.21657-.00411.43082-.0138.59018-.02724.15641-.01276.26059-.02647.26059-.02647,0,0-.1012-.01069-.25574-.01918-.15648-.00761-.36918-.0118-.58638-.00905-.2205.00338-.44549.0137-.61807.02678-.17394.01371-.29196.02855-.29196.02855,0,0,.11495.01097.2868.0197Zm-6.16061.03561c-.20051.01191-.33598.0263-.33598.0263,0,0,.13375.01079.33236.01746.19601.00636.45461.01032.7098.00603.25107-.00401.49886-.01606.682-.02787.18191-.01186.30258-.02567.30258-.02567,0,0-.11857-.01058-.29905-.01669-.18196-.00673-.42803-.01046-.67914-.00717-.25511.0029-.51475.01485-.71258.02762Zm5.391.77827c-.13874.01484-.23224.02914-.23224.02914,0,0,.09074.00607.2284.00731.13563.00175.31418.00023.49243-.00913.17493-.00768.34823-.02276.47768-.03615.12801-.01331.21275-.02714.21275-.02714,0,0-.08279-.00599-.2092-.00778-.12693-.00189-.29941-.00064-.47426.00759-.17756.00755-.35833.02281-.49556.03616Zm-2.43205-.59909c-.21974.00405-.44351.01637-.61418.02964-.17249.01168-.28861.0267-.28861.0267,0,0,.11445.00893.28529.01357.16801.00465.39083.00684.61095.00074.21652-.00483.43108-.01711.58948-.02914.1572-.01225.26207-.02584.26207-.02584,0,0-.10261-.00882-.25809-.01324-.15747-.00515-.37006-.00808-.58691-.00242Zm1.86896.13893c-.24969.02215-.41959.04547-.41959.04547,0,0,.16622.01228.4133.02009.24249.00677.55932.00609.87069-.00324.30484-.01037.60297-.02838.82384-.04885.21624-.02029.3602-.04122.3602-.04122,0,0-.13971-.01208-.35342-.02035-.21698-.00782-.51396-.00818-.81863-.00062-.31137.00932-.63072.02724-.8764.04872Zm1.95032.4155c-.0731.0084-.12224.01652-.12224.01652,0,0,.04787.00244.12016.00398.07195.00147.16722-.00152.26266-.00449.09418-.00568.18849-.01204.25886-.02007.06978-.00867.1169-.0154.1169-.0154,0,0-.0458-.00311-.11426-.00429-.06974-.00194-.16311.00035-.25786.00344-.09482.00627-.19112.0119-.26422.0203Zm1.88935-.12703s.0472.0032.11059.0059l.41279-.06392c-.02612-.00137-.05221-.0029-.08941-.00369-.10229-.00204-.24005-.00189-.38029.00399-.14202.0059-.28595.01817-.39589.02956-.11132.01114-.18599.0242-.18599.0242,0,0,.07282.00624.18187.00813.09605.00228.22276.00059.34855-.00464l-.00221.00047Zm-6.47345.99439s.07758.00165.18158.00118l.53-.08191c-.15552.01275-.30699.02749-.42881.04179-.16896.01926-.28277.03895-.28277.03895Zm-.93821-.08309s-.12016-.00398-.30279-.00146c-.18506.00225-.43516.00962-.69046.02576-.25867.01621-.52257.04047-.7237.06235-.20305.0217-.34093.04325-.34093.04325,0,0,.1362.00434.33736.00122.19991-.00406.46204-.01324.72149-.02983.25461-.01627.50584-.04096.69284-.06107.18369-.02038.30619-.04022.30619-.04022Zm-8.64034-1.6075l.08062.05426c.24648-.01638.40244-.02957.40244-.02957,0,0-.18331-.01177-.48307-.02469Zm1.01099.67864l.07563.05067c.17617-.00675.34625-.0141.47779-.02356.16051-.01199.26716-.02276.26716-.02276,0,0-.10625-.00455-.26636-.00789-.15034-.00257-.35024.00043-.55422.00354Zm3.44204.57422c.22494-.02042.37407-.03968.37407-.03968,0,0-.14729-.0066-.37096-.00612-.11398.00178-.24701.00034-.39032.00459-.14469.00504-.30088.01005-.45827.01484-.1583.00868-.31935.01791-.47021.02658-.15311.00842-.29708.0228-.42133.03116-.25055.02198-.42023.04322-.42023.04322,0,0,.16783.00656.41752.00513.12388-.00169.26694-.00085.41974-.00667.15149-.00448.31159-.01052.47031-.01577.15693-.00894.31276-.01862.4584-.02685.1436-.00773.27764-.02203.39128-.03043Zm12.02493-1.51739c.10378-.00777.1728-.01711.1728-.01711,0,0-.0666-.00826-.16922-.01514-.10275-.0062-.24218-.0122-.38392-.01156-.14379.00026-.28938.00726-.40102.01444-.11164.00719-.18757.01753-.18757.01753,0,0,.0734.00883.18332.01549.10941.00656.25415.01162.39739.01055.1423.00017.28335-.00716.38823-.01419Zm-4.53383-.72651c-.19865-.00456-.40111-.00204-.55519.00301-.15612.00555-.26135.01446-.26135.01446,0,0,.10297.0135.25737.02462.1523.01196.35314.02277.5526.02678.19598.0037.39-.00005.53469-.00509.14275-.00506.23791-.01409.23791-.01409,0,0-.093-.01286-.23474-.02355-.14242-.01082-.33451-.02299-.5313-.02614Zm-3.18155.02384c-.18546.00624-.3106.01655-.3106.01655,0,0,.12287.01405.30633.02691.18216.01226.42115.02352.65767.02722.2327.00422.46268.00032.63259-.00511.16894-.00598.28075-.01596.28075-.01596,0,0-.10959-.01315-.27659-.02504-.16895-.0119-.39762-.0244-.63032-.02863-.23605-.00432-.47723-.00111-.65983.00407Zm1.68411.53598c-.16567.00836-.27695.02021-.27695.02021,0,0,.10964.01192.27292.0201.16175.00878.37558.01637.58653.0158.20767-.00012.4138-.00708.56671-.01536.15039-.00805.25082-.01875.25082-.01875,0,0-.09776-.0111-.24749-.01975-.15059-.00881-.35576-.01636-.56326-.01621-.21093-.00138-.42644.00559-.58928.01395Zm6.86643.36019c.12702-.01084.21184-.02324.21184-.02324,0,0-.08201-.01009-.20662-.01774-.12583-.0077-.29732-.01176-.47252-.01014-.17707.00215-.35803.01083-.49583.0216-.13984.01126-.23452.02428-.23452.02428,0,0,.0911.01074.22895.01857.13598.00837.31468.01166.49193.00955.17512-.00305.34806-.01147.47678-.02287Zm.10486.18256c.09518-.00815.15962-.01853.15962-.01853,0,0-.0614-.00675-.15554-.01168-.09495-.00438-.22241-.00814-.35241-.00494-.13138.00206-.26502.01042-.36677.01963-.10302.00844-.17159.01911-.17159.01911,0,0,.0667.00775.16759.01253.09948.00381.23239.00682.36366.00351.13008-.00265.25904-.01065.35544-.01963Z" fill="#8d6143" opacity=".2"/>
      <path d="m202.42147,21.60904c-.05225-.78101,1.24774-.72662,1.80646-2.26117-.6377-.06537-1.28546.06702-1.85162.38928l-3.10352,1.53003-.30786,4.62238,2.87323,1.9281c.68732.52283,1.73279.44672,2.57562.59082l.06158-.00952c-.83661-1.38287-2.19397-1.25134-2.48071-1.88934-.1344-.30048.23578-.41364.55615-.48608,1.21753-.27496,2.80536-.41223,3.33282-1.30823,1.05713-1.79248-3.41144-2.35944-3.46216-3.10626Z" fill="#fff0e5"/>
      <path d="m204.14494,19.3432c-.49528,1.23272-2.04035,1.4561-2.02367,2.24575.02291,1.10434,4.67063,1.35072,3.46231,3.10647-.58962.85654-2.30655.84599-3.30071,1.15318-.31389.0963-.71189.33595-.58843.64096.32707.8044,1.86887.63901,2.74116,1.92234L11.36506,15.55447l.59997-9.00942,192.17991,12.79815Z" fill="url(#linear-gradient-3)"/>
      <path d="m3.23588,5.96373l18.8114,1.25267-1.01684,2.31694-.36624,4.55918.78312,2.1333-18.58478-1.23772c-.4142-.02752-.80364-.21519-1.07054-.53315-.48977-.58093-1.09988-1.74367-.95922-3.85748.19673-2.95248,1.10718-4.0412,1.66975-4.43511.2136-.14948.47304-.216.73336-.19862Z" fill="url(#linear-gradient-4)"/>
      <polygon points="21.31569 14.03269 21.6675 9.66092 22.51253 7.24741 21.45833 7.17722 20.54 9.49131 20.17311 14.05106 20.82906 16.18473 21.9457 16.25907 21.31569 14.03269" fill="url(#linear-gradient-5)"/>
    </g>
  </g>
</svg>