<?xml version="1.0" encoding="UTF-8"?><svg xmlns="http://www.w3.org/2000/svg" xmlns:xlink="http://www.w3.org/1999/xlink" viewBox="0 0 279.94 20"><defs><style>.cls-1{fill:url(#_ÅÂÁ_Ï_ÌÌ_È_ËÂÌÚ_5200-5);}.cls-2{fill:url(#_ÅÂÁ_Ï_ÌÌ_È_ËÂÌÚ_5200-2);}.cls-3{fill:url(#_ÅÂÁ_Ï_ÌÌ_È_ËÂÌÚ_5200-3);}.cls-4{fill:url(#_ÅÂÁ_Ï_ÌÌ_È_ËÂÌÚ_5200-4);}.cls-5{fill:url(#_ÅÂÁ_Ï_ÌÌ_È_ËÂÌÚ_1615);}.cls-6{fill:url(#_ÅÂÁ_Ï_ÌÌ_È_ËÂÌÚ_5200);}.cls-7{fill:#ddd;mix-blend-mode:multiply;}.cls-8{isolation:isolate;}</style><linearGradient id="_ÅÂÁ_Ï_ÌÌ_È_ËÂÌÚ_1615" x1="1092.34" y1="2175.93" x2="1092.34" y2="1972.84" gradientTransform="translate(2248.09 -1082.34) rotate(90)" gradientUnits="userSpaceOnUse"><stop offset=".64" stop-color="#f3f4f4"/><stop offset="1" stop-color="#edeeee"/></linearGradient><linearGradient id="_ÅÂÁ_Ï_ÌÌ_È_ËÂÌÚ_5200" x1="1092.34" y1="2247.68" x2="1092.34" y2="1968.15" gradientTransform="translate(2248.09 -1082.34) rotate(90)" gradientUnits="userSpaceOnUse"><stop offset="0" stop-color="#c1c5c6"/><stop offset=".5" stop-color="#dadad9"/><stop offset="1" stop-color="#eee"/></linearGradient><linearGradient id="_ÅÂÁ_Ï_ÌÌ_È_ËÂÌÚ_5200-2" y1="2247.68" y2="1968.15" xlink:href="#_ÅÂÁ_Ï_ÌÌ_È_ËÂÌÚ_5200"/><linearGradient id="_ÅÂÁ_Ï_ÌÌ_È_ËÂÌÚ_5200-3" y1="2247.68" y2="1968.15" xlink:href="#_ÅÂÁ_Ï_ÌÌ_È_ËÂÌÚ_5200"/><linearGradient id="_ÅÂÁ_Ï_ÌÌ_È_ËÂÌÚ_5200-4" y1="2247.68" y2="1968.15" xlink:href="#_ÅÂÁ_Ï_ÌÌ_È_ËÂÌÚ_5200"/><linearGradient id="_ÅÂÁ_Ï_ÌÌ_È_ËÂÌÚ_5200-5" y1="2247.68" y2="1968.15" xlink:href="#_ÅÂÁ_Ï_ÌÌ_È_ËÂÌÚ_5200"/></defs><g class="cls-8"><g id="Layer_2"><g id="_ÎÓÈ_1"><g id="paper_middle"><rect class="cls-7" width=".41" height="20"/><rect class="cls-7" width=".41" height="20"/><rect class="cls-7" width=".41" height="20"/><rect class="cls-7" width=".41" height="20"/><rect class="cls-5" x="279.34" width=".49" height="20"/><rect class="cls-5" x="279.34" width=".49" height="20"/><rect class="cls-5" x="279.34" width=".49" height="20"/><rect class="cls-5" x="279.34" width=".49" height="20"/><rect class="cls-7" x=".52" width="278.83" height="20"/><rect class="cls-5" x=".52" width="278.83" height="20"/><rect class="cls-7" x=".52" width="278.83" height="20"/><rect class="cls-5" x=".52" width="278.83" height="20"/><rect class="cls-7" x=".52" width="278.83" height="20"/><rect class="cls-5" x=".52" width="278.83" height="20"/><rect class="cls-7" x=".52" width="278.83" height="20"/><rect class="cls-5" x=".52" width="278.83" height="20"/><rect class="cls-6" x="279.88" width=".06" height="20"/><rect class="cls-6" x="279.88" width=".06" height="20"/><rect class="cls-6" x="279.88" width=".06" height="20"/><rect class="cls-6" x="279.88" width=".06" height="20"/><rect class="cls-7" x=".41" width=".05" height="20"/><rect class="cls-2" x=".41" width=".05" height="20"/><rect class="cls-7" x=".41" width=".05" height="20"/><rect class="cls-3" x=".41" width=".05" height="20"/><rect class="cls-7" x=".41" width=".05" height="20"/><rect class="cls-4" x=".41" width=".05" height="20"/><rect class="cls-7" x=".41" width=".05" height="20"/><rect class="cls-1" x=".41" width=".05" height="20"/><rect class="cls-5" x="279.83" width=".05" height="20"/><rect class="cls-6" x="279.83" width=".05" height="20"/><rect class="cls-5" x="279.83" width=".05" height="20"/><rect class="cls-6" x="279.83" width=".05" height="20"/><rect class="cls-5" x="279.83" width=".05" height="20"/><rect class="cls-6" x="279.83" width=".05" height="20"/><rect class="cls-5" x="279.83" width=".05" height="20"/><rect class="cls-6" x="279.83" width=".05" height="20"/><rect class="cls-7" x=".46" width=".05" height="20"/><rect class="cls-5" x=".46" width=".05" height="20"/><rect class="cls-6" x=".46" width=".05" height="20"/><rect class="cls-7" x=".46" width=".05" height="20"/><rect class="cls-5" x=".46" width=".05" height="20"/><rect class="cls-6" x=".46" width=".05" height="20"/><rect class="cls-7" x=".46" width=".05" height="20"/><rect class="cls-5" x=".46" width=".05" height="20"/><rect class="cls-6" x=".46" width=".05" height="20"/><rect class="cls-7" x=".46" width=".05" height="20"/><rect class="cls-5" x=".46" width=".05" height="20"/><rect class="cls-6" x=".46" width=".05" height="20"/></g></g></g></g></svg>