<svg xmlns="http://www.w3.org/2000/svg" width="20" height="20" viewBox="0 0 20 20">
	<path d="M15.833 2.5H12.35C12 1.533 11.083.833 10 .833c-1.083 0-2 .7-2.35 1.667H4.167C3.25 2.5 2.5 3.25 2.5 4.167v11.666c0 .917.75 1.667 1.667 1.667h11.666c.917 0 1.667-.75 1.667-1.667V4.167c0-.917-.75-1.667-1.667-1.667zM10 2.5c.458 0 .833.375.833.833 0 .459-.375.834-.833.834-.458 0-.833-.375-.833-.834 0-.458.375-.833.833-.833zm1.667 11.667H5.833V12.5h5.834v1.667zm2.5-3.334H5.833V9.167h8.334v1.666zm0-3.333H5.833V5.833h8.334V7.5z"/>
</svg>
