<svg xmlns="http://www.w3.org/2000/svg" width="24" height="24" viewBox="0 0 24 24">
    <g fill="none" fill-rule="evenodd">
        <g>
            <g>
                <g>
                    <g>
                        <g>
                            <path d="M0 0L24 0 24 24 0 24z" transform="translate(-75 -595) translate(0 50) translate(40 168) translate(30 371) translate(5 6)"/>
                            <path fill="#0592AF" fill-rule="nonzero" d="M11.99 2C6.47 2 2 6.48 2 12s4.47 10 9.99 10C17.52 22 22 17.52 22 12S17.52 2 11.99 2zM12 20c-4.42 0-8-3.58-8-8s3.58-8 8-8 8 3.58 8 8-3.58 8-8 8z" transform="translate(-75 -595) translate(0 50) translate(40 168) translate(30 371) translate(5 6)"/>
                            <path fill="#0592AF" fill-rule="nonzero" d="M12.5 7L11 7 11 13 16.25 16.15 17 14.92 12.5 12.25z" transform="translate(-75 -595) translate(0 50) translate(40 168) translate(30 371) translate(5 6)"/>
                        </g>
                    </g>
                </g>
            </g>
        </g>
    </g>
</svg>
