<?xml version="1.0" ?><svg contentScriptType="text/ecmascript" contentStyleType="text/css" enable-background="new 0 0 2048 2048" height="2048px" id="Layer_1" preserveAspectRatio="xMidYMid meet" version="1.1" viewBox="13.0 0 966.0 2048" width="966.0px" xml:space="preserve" xmlns="http://www.w3.org/2000/svg" xmlns:xlink="http://www.w3.org/1999/xlink" zoomAndPan="magnify"><path d="M595,1088c0,8.667-3.333,16.333-10,23l-466,466c-6.667,6.667-14.333,10-23,10s-16.333-3.333-23-10l-50-50  c-6.667-6.667-10-14.333-10-23s3.333-16.333,10-23l393-393L23,695c-6.667-6.667-10-14.333-10-23s3.333-16.333,10-23l50-50  c6.667-6.667,14.333-10,23-10s16.333,3.333,23,10l466,466C591.667,1071.667,595,1079.333,595,1088z M979,1088  c0,8.667-3.333,16.333-10,23l-466,466c-6.667,6.667-14.333,10-23,10s-16.333-3.333-23-10l-50-50c-6.667-6.667-10-14.333-10-23  s3.333-16.333,10-23l393-393L407,695c-6.667-6.667-10-14.333-10-23s3.333-16.333,10-23l50-50c6.667-6.667,14.333-10,23-10  s16.333,3.333,23,10l466,466C975.667,1071.667,979,1079.333,979,1088z"/></svg>