<svg id="hamburger-menu" xmlns="http://www.w3.org/2000/svg" viewBox="0 0 2048 2048"><title>Menu</title><path d="M1536,1472v128c0,17.333-6.333,32.333-19,45s-27.667,19-45,19H64c-17.333,0-32.333-6.333-45-19s-19-27.667-19-45v-128  c0-17.333,6.333-32.333,19-45s27.667-19,45-19h1408c17.333,0,32.333,6.333,45,19S1536,1454.667,1536,1472z M1536,960v128  c0,17.333-6.333,32.333-19,45s-27.667,19-45,19H64c-17.333,0-32.333-6.333-45-19s-19-27.667-19-45V960c0-17.333,6.333-32.333,19-45  s27.667-19,45-19h1408c17.333,0,32.333,6.333,45,19S1536,942.667,1536,960z M1536,448v128c0,17.333-6.333,32.333-19,45  s-27.667,19-45,19H64c-17.333,0-32.333-6.333-45-19S0,593.333,0,576V448c0-17.333,6.333-32.333,19-45s27.667-19,45-19h1408  c17.333,0,32.333,6.333,45,19S1536,430.667,1536,448z"/></svg>