<?xml version="1.0" ?><svg contentScriptType="text/ecmascript" contentStyleType="text/css" enable-background="new 0 0 2048 2048" height="2048px" id="Layer_1" preserveAspectRatio="xMidYMid meet" version="1.1" viewBox="45.0 0 966.0 2048" width="966.0px" xml:space="preserve" xmlns="http://www.w3.org/2000/svg" xmlns:xlink="http://www.w3.org/1999/xlink" zoomAndPan="magnify"><path d="M627,1504c0,8.667-3.333,16.333-10,23l-50,50c-6.667,6.667-14.333,10-23,10s-16.333-3.333-23-10L55,1111  c-6.667-6.667-10-14.333-10-23s3.333-16.333,10-23l466-466c6.667-6.667,14.333-10,23-10s16.333,3.333,23,10l50,50  c6.667,6.667,10,14.333,10,23s-3.333,16.333-10,23l-393,393l393,393C623.667,1487.667,627,1495.333,627,1504z M1011,1504  c0,8.667-3.333,16.333-10,23l-50,50c-6.667,6.667-14.333,10-23,10s-16.333-3.333-23-10l-466-466c-6.667-6.667-10-14.333-10-23  s3.333-16.333,10-23l466-466c6.667-6.667,14.333-10,23-10s16.333,3.333,23,10l50,50c6.667,6.667,10,14.333,10,23  s-3.333,16.333-10,23l-393,393l393,393C1007.667,1487.667,1011,1495.333,1011,1504z"/></svg>