<?xml version="1.0" encoding="UTF-8"?>
<svg width="30px" height="37px" viewBox="0 0 30 37" version="1.1" xmlns="http://www.w3.org/2000/svg" xmlns:xlink="http://www.w3.org/1999/xlink">
    <title>notebook-spiral@1x</title>
    <defs>
        <linearGradient x1="50%" y1="0%" x2="50%" y2="100%" id="linearGradient-1">
            <stop stop-color="#C6C6C6" offset="0%"></stop>
            <stop stop-color="#706F6F" offset="100%"></stop>
        </linearGradient>
        <linearGradient x1="50%" y1="0%" x2="50%" y2="100%" id="linearGradient-2">
            <stop stop-color="#C6C6C6" offset="0%"></stop>
            <stop stop-color="#706F6F" offset="100%"></stop>
        </linearGradient>
    </defs>
    <g id="notebook-spiral" stroke="none" stroke-width="1" fill="none" fill-rule="evenodd">
        <g transform="translate(-0.000000, -0.000000)">
            <rect id="padding" x="0" y="0" width="29.66" height="37.08"></rect>
            <path d="M18.3722826,37.0845587 L10.2853261,37.0845587 C8.46980435,37.0845587 7,35.6127326 7,33.7992326 L7,25.7122761 C7,23.8987761 8.46980435,22.42695 10.2853261,22.42695 L18.3722826,22.42695 C20.1857826,22.42695 21.6576087,23.8987761 21.6576087,25.7122761 L21.6576087,33.7992326 C21.6576087,35.6127326 20.1857826,37.0845587 18.3722826,37.0845587" id="hole" fill="#616161"></path>
            <path d="M11,3.06234034 L11,4.27536606 L11,10.0652539 L11,16.5353797 L11,22.2898794 L11,28.8091554 L11,29.9356769 C11,31.3158131 11.735913,32.0039153 12.4677826,32 L12.4677826,32 C13.1915652,31.9940852 13.9113043,31.3059831 13.9113043,29.9356769 L13.9113043,29.9356769 L13.9113043,28.8091554 L13.9113043,22.2898794 L13.9113043,16.5353797 L13.9113043,10.0652539 L13.9113043,4.27536606 L13.9113043,3.06234034 C13.9113043,1.69203413 13.1915652,1.00589802 12.4677826,1 L12.4677826,1 C12.4637391,1 12.4596957,1 12.4556522,1 L12.4556522,1 C11.7278261,1 11,1.69006812 11,3.06234034" id="left-shadow" fill-opacity="0.5" fill="#000000"></path>
            <path d="M10,2.12080435 L10,3.36821739 L10,9.32223913 L10,15.9757826 L10,21.893413 L10,28.5975 L10,29.7559565 C10,31.1752174 10.735913,31.8828261 11.4677826,31.8787998 L11.4677826,31.8787998 C12.1915652,31.8727174 12.9113043,31.1651087 12.9113043,29.7559565 L12.9113043,29.7559565 L12.9113043,28.5975 L12.9113043,21.893413 L12.9113043,15.9757826 L12.9113043,9.32223913 L12.9113043,3.36821739 L12.9113043,2.12080435 C12.9113043,0.711652174 12.1915652,0.00606521739 11.4677826,0 L11.4677826,0 C11.4637391,0 11.4596957,0 11.4556522,0 L11.4556522,0 C10.7278261,0 10,0.709630435 10,2.12080435" id="left-spiral" fill="url(#linearGradient-1)"></path>
            <path d="M17,3.06234034 L17,4.27536606 L17,10.0652539 L17,16.5353797 L17,22.2898794 L17,28.8091554 L17,29.9356769 C17,31.3158131 17.735913,32.0039153 18.4677826,32 L18.4677826,32 C19.1915652,31.9940852 19.9113043,31.3059831 19.9113043,29.9356769 L19.9113043,29.9356769 L19.9113043,28.8091554 L19.9113043,22.2898794 L19.9113043,16.5353797 L19.9113043,10.0652539 L19.9113043,4.27536606 L19.9113043,3.06234034 C19.9113043,1.69203413 19.1915652,1.00589802 18.4677826,1 L18.4677826,1 C18.4637391,1 18.4596957,1 18.4556522,1 L18.4556522,1 C17.7278261,1 17,1.69006812 17,3.06234034" id="right-shadow" fill-opacity="0.5" fill="#000000"></path>
            <path d="M16,2.12080435 L16,3.36619565 L16,9.32223913 L16,15.9737609 L16,21.893413 L16,28.5954783 L16,29.7579783 C16,31.1752174 16.7338913,31.8828261 17.4657609,31.8767995 L17.4657609,31.8767995 C18.1915652,31.8706957 18.9113043,31.1651087 18.9113043,29.7579783 L18.9113043,29.7579783 L18.9113043,28.5954783 L18.9113043,21.893413 L18.9113043,15.9737609 L18.9113043,9.32223913 L18.9113043,3.36619565 L18.9113043,2.12080435 C18.9113043,0.711652174 18.1915652,0.00606521739 17.4657609,0 L17.4657609,0 C17.4617174,0 17.4576739,0 17.4536304,0 L17.4536304,0 C16.7258043,0 16,0.707608696 16,2.12080435" id="right-spiral" fill="url(#linearGradient-2)"></path>
        </g>
    </g>
</svg>